 <svg version="1.0" xmlns="http://www.w3.org/2000/svg"  width="300.000000pt" height="169.000000pt" viewBox="0 0 300.000000 169.000000"  preserveAspectRatio="xMidYMid meet">  <g transform="translate(0.000000,169.000000) scale(0.100000,-0.100000)" fill="#000000" stroke="none"> <path d="M1278 1683 c23 -2 59 -2 80 0 20 2 1 4 -43 4 -44 0 -61 -2 -37 -4z"/> <path d="M380 1640 c0 -13 7 -20 20 -20 13 0 20 7 20 20 0 13 -7 20 -20 20 -13 0 -20 -7 -20 -20z"/> <path d="M1180 1645 c0 -8 9 -15 20 -15 11 0 20 7 20 15 0 8 -9 15 -20 15 -11 0 -20 -7 -20 -15z"/> <path d="M1714 1649 c-3 -6 -2 -15 2 -19 12 -12 38 5 30 19 -9 14 -23 14 -32 0z"/> <path d="M170 1638 c0 -4 18 -8 40 -8 22 0 40 5 40 10 0 6 -17 10 -40 8 -22 -1 -40 -6 -40 -10z"/> <path d="M700 1640 c0 -6 16 -10 35 -10 19 0 35 4 35 8 0 5 -16 9 -35 10 -19 1 -35 -3 -35 -8z"/> <path d="M970 1640 c0 -5 20 -10 45 -10 25 0 45 5 45 10 0 6 -20 10 -45 10 -25 0 -45 -4 -45 -10z"/> <path d="M1240 1638 c0 -4 14 -8 30 -8 17 0 32 0 35 0 3 0 5 3 5 7 0 4 -16 8 -35 8 -19 1 -35 -2 -35 -7z"/> <path d="M1500 1638 c0 -4 16 -8 35 -8 19 0 35 4 35 9 0 5 -16 8 -35 8 -19 -1 -35 -5 -35 -9z"/> <path d="M2030 1640 c0 -5 14 -10 31 -10 17 0 28 4 24 10 -3 6 -17 10 -31 10 -13 0 -24 -4 -24 -10z"/> <path d="M2477 1564 c-4 -4 -7 -16 -7 -26 0 -20 25 -25 36 -7 8 13 -19 43 -29 33z"/> <path d="M2851 1561 c-17 -11 -7 -41 13 -41 22 0 30 20 15 36 -9 8 -19 10 -28 5z"/> <path d="M205 1550 c-3 -5 -4 -14 0 -20 8 -13 35 -1 35 16 0 16 -26 19 -35 4z"/> <path d="M413 1552 c-30 -2 -43 -8 -43 -18 0 -8 4 -13 8 -10 5 3 79 6 165 7 87 0 157 5 157 9 0 13 -26 15 -122 10 -49 -3 -97 -3 -106 0 -9 3 -36 4 -59 2z"/> <path d="M723 1553 c-7 -3 -13 -11 -13 -19 0 -9 5 -12 11 -8 6 4 54 6 106 5 68 -1 94 2 91 11 -5 14 -36 19 -44 7 -3 -5 -11 -6 -17 -2 -17 10 -87 11 -87 1 0 -5 -8 -5 -17 0 -10 5 -24 7 -30 5z"/> <path d="M2272 1543 c2 -10 10 -18 18 -18 8 0 16 8 18 18 2 12 -3 17 -18 17 -15 0 -20 -5 -18 -17z"/> <path d="M2682 1548 c-19 -19 -14 -28 13 -28 27 0 32 12 12 29 -10 8 -17 7 -25 -1z"/> <path d="M2760 1540 c0 -13 7 -20 20 -20 13 0 20 7 20 20 0 13 -7 20 -20 20 -13 0 -20 -7 -20 -20z"/> <path d="M2730 1455 c0 -8 9 -15 20 -15 11 0 20 7 20 15 0 8 -9 15 -20 15 -11 0 -20 -7 -20 -15z"/> <path d="M2830 1455 c0 -6 31 -11 70 -11 39 -1 70 3 70 7 0 10 4 10 -78 12 -36 1 -62 -2 -62 -8z"/> <path d="M1068 1383 c83 -2 221 -2 305 0 83 1 15 3 -153 3 -168 0 -236 -2 -152 -3z"/> <path d="M2834 1372 c-20 -13 -23 -41 -7 -57 19 -19 42 -16 57 8 19 30 -20 70 -50 49z"/> <path d="M177 1364 c-4 -4 -7 -16 -7 -26 0 -16 6 -19 33 -16 24 2 32 8 32 23 0 14 -8 21 -25 23 -14 2 -29 0 -33 -4z"/> <path d="M330 1346 c0 -21 4 -24 32 -23 17 1 33 8 36 16 3 10 -1 12 -16 9 -13 -4 -23 0 -26 8 -9 23 -26 16 -26 -10z"/> <path d="M2705 1358 c-10 -25 1 -49 20 -42 19 8 19 15 1 40 -14 18 -15 18 -21 2z"/> <path d="M2960 1261 c0 -99 2 -111 18 -111 15 0 17 11 15 107 -2 89 -5 109 -17 111 -14 3 -16 -12 -16 -107z"/> <path d="M252 1348 c8 -23 35 -33 52 -19 25 21 19 31 -20 31 -23 0 -34 -4 -32 -12z"/> <path d="M775 1350 c-12 -19 5 -28 42 -23 21 3 46 5 56 4 10 0 17 5 14 12 -4 14 -76 10 -95 -5 -9 -8 -11 -7 -6 6 7 17 -1 22 -11 6z"/> <path d="M2044 1349 c-3 -6 0 -15 7 -20 24 -15 37 -10 32 11 -6 22 -28 27 -39 9z"/> <path d="M2580 1340 c0 -16 5 -21 23 -18 12 2 22 10 22 18 0 8 -10 16 -22 18 -18 3 -23 -2 -23 -18z"/> <path d="M242 1208 c-19 -19 -17 -811 2 -827 9 -8 213 -10 747 -9 l734 3 0 420 0 420 -735 3 c-564 2 -739 -1 -748 -10z m278 -28 c-15 -5 29 -8 114 -9 77 -1 137 -3 134 -6 -3 -3 -59 -6 -124 -7 -74 -1 -122 -5 -126 -12 -5 -8 -8 -7 -8 2 0 6 -4 12 -8 12 -5 0 -9 -7 -9 -15 0 -12 17 -15 94 -15 67 0 93 -3 94 -12 0 -10 2 -10 6 0 8 20 49 14 62 -10 l11 -23 -6 23 c-4 18 -1 22 18 23 16 1 18 3 6 6 -14 4 -15 8 -5 24 11 18 28 19 464 19 416 0 487 -4 453 -25 -6 -4 -8 -10 -5 -15 3 -4 5 -144 5 -310 1 -215 -3 -306 -11 -316 -9 -11 -7 -14 10 -14 12 0 19 -4 16 -10 -3 -6 -52 -10 -111 -10 -65 0 -104 -4 -104 -10 0 -7 -6 -7 -19 0 -11 5 -58 10 -104 10 -64 0 -88 -4 -98 -16 -11 -14 -13 -14 -21 0 -12 21 -86 22 -94 1 -8 -19 -21 -19 -40 0 -18 18 -52 19 -91 4 -19 -7 -29 -7 -31 0 -5 14 -132 14 -166 1 -14 -5 -27 -6 -30 -2 -3 4 -73 9 -156 10 -102 2 -149 -1 -145 -8 3 -6 -1 -17 -9 -26 -9 -8 -17 -11 -17 -5 -1 6 -2 17 -3 23 0 8 -19 14 -43 16 -33 2 -43 -1 -43 -13 0 -8 -7 -15 -16 -15 -10 0 -14 6 -10 15 3 8 2 14 -2 14 -30 -5 -92 3 -92 11 0 6 7 10 14 10 12 0 13 6 6 27 -5 16 -8 91 -6 168 2 77 4 164 5 193 l1 52 58 2 57 1 -63 6 c-60 6 -62 7 -49 25 12 16 18 17 45 8 25 -9 30 -8 26 3 -4 9 4 15 23 18 15 2 3 3 -27 1 -58 -4 -96 9 -72 24 9 6 11 18 6 35 -4 17 -2 27 5 27 6 0 11 -8 12 -17 0 -14 2 -15 6 -3 3 8 11 18 17 22 6 4 -1 8 -16 8 -16 0 -28 5 -28 11 0 6 14 9 33 7 19 -2 31 -8 29 -15 -1 -7 2 -13 8 -13 6 0 10 4 10 9 0 5 9 13 20 16 40 13 18 21 -45 17 -53 -4 -65 -2 -65 11 0 8 10 17 23 21 35 9 115 7 122 -4 3 -6 15 -6 29 0 13 5 27 6 30 3 3 -3 8 2 12 11 4 10 17 16 33 15 l26 -1 -25 -8z m840 -730 c0 -5 -7 -10 -15 -10 -8 0 -15 -6 -15 -14 0 -15 -24 -28 -34 -19 -13 13 -5 42 12 46 31 8 52 7 52 -3z m90 -20 c0 -27 -3 -30 -30 -30 -27 0 -30 3 -30 30 0 27 3 30 30 30 27 0 30 -3 30 -30z m-1131 11 c16 -10 6 -31 -15 -31 -8 0 -14 9 -14 20 0 22 7 25 29 11z m131 -11 c0 -12 -8 -17 -25 -17 -34 0 -34 31 0 33 18 1 25 -3 25 -16z m108 2 c5 -17 -27 -27 -41 -13 -9 9 -8 14 3 21 18 11 32 8 38 -8z m122 -3 c0 -12 -67 -12 -75 0 -3 5 7 11 22 13 33 4 53 -1 53 -13z m108 3 c2 -8 -11 -12 -37 -12 -27 0 -41 4 -41 13 0 17 72 15 78 -1z m329 4 c12 -12 -11 -26 -43 -26 -27 0 -34 4 -34 20 0 17 5 20 36 16 20 -3 38 -7 41 -10z m113 -6 c0 -16 -7 -20 -30 -20 -23 0 -30 4 -30 20 0 16 7 20 30 20 23 0 30 -4 30 -20z m340 0 c0 -16 -7 -20 -35 -20 -28 0 -35 4 -35 20 0 16 7 20 35 20 28 0 35 -4 35 -20z m-573 -4 c-6 -17 -177 -15 -177 1 0 10 21 13 90 11 58 -1 89 -5 87 -12z"/> <path d="M913 1125 c-3 -9 -3 -19 1 -22 3 -4 6 1 6 10 0 13 13 17 63 20 l62 3 -63 2 c-48 2 -64 -1 -69 -13z"/> <path d="M473 1065 c0 -6 30 -9 71 -9 68 2 69 1 16 -5 -48 -5 -55 -9 -56 -28 0 -13 3 -23 8 -23 4 0 8 9 8 21 0 11 5 17 10 14 6 -4 7 -11 4 -17 -4 -6 -1 -8 7 -6 8 3 13 11 12 17 -2 6 8 11 22 11 22 0 25 -3 20 -27 l-5 -28 11 28 c8 21 17 27 40 27 16 0 29 -4 29 -10 0 -5 10 -10 23 -10 17 0 19 2 8 9 -10 6 13 10 63 10 43 0 81 3 85 6 3 4 -37 5 -89 4 -52 -1 -106 2 -120 7 -18 6 25 11 145 15 159 5 154 6 -71 5 -153 -1 -241 -5 -241 -11z"/> <path d="M315 1050 c-15 -7 -16 -9 -4 -9 9 -1 32 -4 50 -7 l34 -6 -29 16 c-15 9 -29 16 -30 15 0 0 -10 -4 -21 -9z"/> <path d="M842 1014 c-7 -8 -22 -14 -32 -14 -11 0 -20 -4 -20 -10 0 -13 -27 -13 -32 -1 -4 12 -125 17 -135 6 -5 -4 -2 -5 5 -1 6 4 12 2 12 -3 0 -6 -25 -12 -57 -12 -56 -2 -56 -2 -18 -9 l40 -7 -42 -2 c-24 0 -43 4 -43 9 0 6 -8 10 -17 9 -11 0 -13 -3 -5 -6 6 -2 12 -11 12 -18 0 -7 -6 -16 -12 -18 -7 -3 39 -6 102 -6 78 -1 110 -4 100 -11 -11 -7 3 -10 48 -10 43 0 62 -4 62 -12 0 -10 2 -10 8 -1 6 10 45 12 149 10 131 -2 139 -1 129 16 -8 12 -24 17 -54 17 -30 0 -41 -3 -36 -12 5 -8 2 -9 -12 -3 -34 14 -127 16 -135 3 -6 -9 -13 -9 -33 1 -20 11 -28 11 -40 2 -12 -10 -14 -9 -9 8 5 19 1 21 -41 21 -27 0 -46 5 -46 11 0 8 -4 8 -14 0 -8 -7 -27 -11 -43 -8 -27 4 -27 4 4 6 17 0 33 7 36 14 3 9 7 9 18 0 16 -13 279 -15 279 -2 0 4 12 9 28 11 15 2 -10 5 -56 6 -47 1 -81 -2 -78 -7 4 -5 -3 -7 -14 -4 -19 5 -19 6 -3 18 10 8 16 16 13 18 -3 3 -11 -1 -18 -9z m-76 -73 c-2 -3 -42 -4 -88 -2 -70 4 -76 6 -38 10 52 7 132 2 126 -8z"/> <path d="M885 960 l-100 -6 97 -2 c56 -1 99 2 103 8 3 6 5 9 3 8 -2 -1 -48 -5 -103 -8z"/> <path d="M885 881 c-3 -6 -24 -9 -46 -9 -22 0 -42 -2 -46 -5 -9 -10 81 -5 94 5 7 6 14 5 18 -2 3 -5 40 -10 82 -10 42 0 74 3 71 6 -4 3 -38 5 -77 5 -39 0 -71 4 -71 9 0 13 -17 13 -25 1z"/> <path d="M520 837 c0 -26 -6 -36 -24 -45 -24 -10 -41 -58 -25 -68 5 -3 9 9 9 25 l0 31 60 0 c33 0 60 -4 60 -10 0 -5 -25 -10 -55 -10 -30 0 -55 -4 -55 -9 0 -14 59 -24 73 -13 19 14 79 24 71 11 -4 -8 -1 -8 12 -2 11 5 44 8 74 7 39 -2 49 0 34 6 -12 5 -49 8 -83 6 -42 -1 -62 2 -65 11 -3 7 0 13 6 13 6 0 8 3 4 7 -4 4 -24 6 -46 4 -34 -2 -39 0 -37 18 1 19 8 21 65 21 35 0 72 5 83 10 11 6 19 7 19 1 0 -5 17 -11 39 -13 34 -3 37 -2 27 14 -9 16 -27 18 -128 18 l-118 0 0 -33z"/> <path d="M1033 753 c-7 -2 -13 -9 -13 -14 0 -6 8 -5 20 1 11 6 20 7 20 3 0 -4 77 -7 172 -6 127 2 174 -1 180 -10 6 -9 8 -9 8 1 0 9 26 12 95 12 77 0 95 -3 95 -15 0 -12 -24 -15 -150 -14 -110 0 -150 3 -150 12 0 9 -2 9 -8 0 -5 -8 -46 -12 -121 -12 -63 -1 -116 -3 -119 -6 -3 -2 -13 0 -23 6 -11 6 -19 6 -19 0 0 -5 6 -11 13 -14 26 -10 596 -7 602 3 3 5 1 10 -4 10 -19 0 -12 30 7 31 9 1 4 5 -13 9 -33 8 -572 11 -592 3z"/> <path d="M1792 1163 c3 -37 4 -38 43 -38 39 0 40 1 43 38 l3 37 -46 0 -46 0 3 -37z"/> <path d="M1930 1163 c0 -14 3 -15 50 -15 45 0 50 1 50 11 0 5 -23 11 -50 13 -35 2 -50 -1 -50 -9z"/> <path d="M2110 1163 c0 -9 18 -13 55 -13 37 0 55 4 55 13 0 8 -18 12 -55 12 -37 0 -55 -4 -55 -12z"/> <path d="M2290 1164 c0 -14 119 -24 127 -11 8 13 2 14 -64 19 -46 3 -63 1 -63 -8z"/> <path d="M2478 1172 c-74 -5 -56 -22 22 -22 49 0 70 4 70 13 0 13 -14 14 -92 9z"/> <path d="M1790 906 l0 -194 38 -4 c55 -5 87 4 90 26 3 17 2 18 -12 6 -20 -16 -101 -26 -92 -11 4 5 32 17 62 26 56 16 56 16 49 48 -18 85 -19 111 -2 104 9 -3 17 -1 19 4 2 6 4 -22 5 -62 1 -54 5 -75 17 -81 9 -5 16 -16 16 -25 0 -13 -3 -13 -15 -3 -18 15 -20 13 -29 -16 -6 -19 -2 -20 62 -22 59 -1 69 1 81 19 9 15 10 24 2 32 -8 8 -11 8 -11 -1 0 -7 -4 -12 -10 -12 -5 0 -7 6 -4 14 3 7 -2 16 -10 19 -10 4 -13 1 -10 -7 3 -7 -2 -19 -11 -26 -12 -10 -15 -10 -15 4 0 9 -7 19 -15 22 -8 4 -12 11 -8 18 4 6 6 21 5 32 -2 15 4 23 17 27 14 3 21 0 21 -9 0 -8 5 -14 10 -14 12 0 13 13 1 26 -5 5 -7 24 -4 41 4 28 8 31 23 23 10 -6 25 -7 33 -4 21 8 28 -21 12 -43 -13 -16 -16 -16 -25 -3 -7 11 -10 5 -10 -26 0 -28 5 -44 15 -48 8 -3 15 -12 15 -20 0 -7 8 -17 18 -21 16 -6 16 -7 -2 -21 -27 -19 -14 -28 29 -20 l35 7 -2 192 -3 192 -192 3 -193 2 0 -194z m264 142 c13 -7 21 -7 26 2 4 6 18 10 31 8 20 -2 25 -10 27 -40 4 -45 -1 -47 -33 -10 l-25 27 16 -39 c8 -21 13 -44 10 -51 -5 -15 -46 -27 -46 -14 0 5 -6 9 -14 9 -8 0 -18 5 -21 10 -9 14 4 52 16 45 5 -3 6 1 3 9 -9 22 -29 9 -42 -28 -16 -43 -16 -43 11 -51 13 -4 17 -8 9 -12 -6 -2 -10 -9 -6 -14 3 -5 -4 -9 -15 -9 -21 0 -47 35 -33 44 5 3 7 19 4 35 -2 17 -9 28 -14 25 -5 -4 -8 -15 -5 -25 3 -11 1 -19 -4 -19 -4 0 -17 -10 -29 -22 -23 -25 -37 -19 -21 9 6 10 18 36 26 58 l16 40 -31 -30 c-26 -25 -30 -36 -30 -79 0 -28 5 -69 10 -91 10 -43 2 -55 -37 -55 -17 0 -23 6 -24 23 -2 57 2 224 7 239 4 14 19 17 102 16 53 0 105 -5 116 -10z m86 -234 c0 -31 -2 -35 -15 -24 -18 15 -19 32 -3 48 17 17 18 16 18 -24z"/> <path d="M2203 1076 c5 -16 47 -20 47 -4 0 7 -11 14 -25 14 -16 1 -24 -3 -22 -10z"/> <path d="M2260 1075 c0 -8 9 -15 21 -15 13 0 18 4 13 13 -6 9 -4 9 7 1 21 -16 179 -17 179 -1 0 15 -121 18 -132 2 -5 -7 -8 -7 -8 1 0 5 -18 11 -40 12 -30 2 -40 -1 -40 -13z"/> <path d="M2503 1075 c5 -14 77 -19 77 -6 0 12 0 12 -48 14 -17 1 -31 -2 -29 -8z"/> <path d="M2590 1076 c0 -12 10 -16 35 -16 19 0 35 5 35 10 0 6 -9 10 -19 10 -11 0 -26 3 -35 6 -11 4 -16 1 -16 -10z"/> <path d="M2310 1024 c0 -7 20 -12 50 -13 65 -1 65 16 0 21 -32 2 -50 -1 -50 -8z"/> <path d="M2420 1022 c0 -4 25 -9 55 -10 30 0 55 3 55 8 0 6 -25 10 -55 10 -30 0 -55 -4 -55 -8z"/> <path d="M2540 1020 c0 -5 18 -10 40 -10 22 0 40 5 40 10 0 6 -18 10 -40 10 -22 0 -40 -4 -40 -10z"/> <path d="M2206 980 c16 -15 129 -16 120 -1 -3 4 -33 8 -67 9 -34 0 -57 -4 -53 -8z"/> <path d="M2400 979 c0 -5 18 -9 40 -9 22 0 40 4 40 9 0 5 -18 9 -40 9 -22 0 -40 -3 -40 -9z"/> <path d="M2490 979 c0 -5 25 -9 55 -9 30 0 55 4 55 9 0 5 -25 10 -55 10 -30 0 -55 -5 -55 -10z"/> <path d="M2200 938 c0 -4 25 -8 55 -8 30 0 55 3 55 8 0 4 -25 7 -55 7 -30 1 -55 -3 -55 -7z"/> <path d="M2320 939 c0 -5 32 -9 72 -9 39 0 68 3 64 7 -11 11 -136 13 -136 2z"/> <path d="M2200 874 c0 -7 25 -11 70 -10 39 1 70 5 70 11 0 6 -30 10 -70 10 -45 0 -70 -4 -70 -11z"/> <path d="M2374 878 c-5 -8 0 -9 14 -6 12 4 22 3 22 -1 0 -9 87 -7 96 2 4 4 1 8 -7 8 -44 5 -65 3 -71 -6 -5 -6 -8 -5 -8 3 0 15 -36 16 -46 0z"/> <path d="M2380 775 c0 -20 5 -25 25 -25 14 0 25 4 25 9 0 5 -9 7 -20 4 -14 -4 -20 0 -20 12 0 12 5 15 20 10 11 -3 20 -3 20 2 0 5 -11 10 -25 11 -21 1 -25 -3 -25 -23z"/> <path d="M2240 776 c0 -7 14 -13 30 -14 19 -1 30 2 30 10 0 7 -13 13 -30 14 -17 1 -30 -4 -30 -10z"/> <path d="M2323 783 c-22 -8 -14 -23 11 -23 30 0 42 15 20 24 -9 3 -16 6 -17 5 -1 0 -8 -3 -14 -6z"/> <path d="M1920 665 c0 -10 10 -15 31 -15 17 0 28 -4 24 -10 -4 -6 7 -10 24 -10 17 0 31 -4 31 -10 0 -6 32 -10 76 -10 56 0 75 3 71 13 -2 7 -16 11 -33 9 -18 -2 -33 3 -41 14 -7 10 -13 12 -13 6 0 -21 -48 -14 -55 8 -5 17 -15 20 -61 20 -41 0 -54 -4 -54 -15z"/> <path d="M2200 664 c0 -15 4 -16 58 -16 31 -1 51 7 41 16 -2 2 -25 6 -51 8 -37 4 -48 2 -48 -8z"/> <path d="M2310 663 c0 -10 22 -13 80 -13 47 0 80 4 80 10 0 6 -8 10 -17 11 -10 0 -46 1 -80 2 -46 2 -63 -1 -63 -10z"/> <path d="M2500 664 c0 -11 68 -23 89 -16 26 9 7 20 -39 24 -33 2 -50 -1 -50 -8z"/> <path d="M1808 635 c-12 -16 -18 -42 -18 -78 0 -46 3 -56 23 -65 l22 -11 -24 0 c-16 -1 -22 -4 -15 -11 6 -6 60 -6 144 -1 74 4 118 9 96 10 -28 1 -37 5 -33 15 5 11 0 13 -21 7 -15 -5 -33 -6 -39 -4 -7 3 -13 0 -13 -6 0 -5 -19 -9 -42 -8 -36 2 -43 5 -43 22 0 11 6 19 13 17 6 -1 12 2 12 8 0 5 -10 8 -22 6 -13 -2 -22 -9 -20 -15 1 -6 -2 -11 -6 -11 -4 0 -9 25 -10 55 -2 53 -1 55 18 43 16 -10 22 -10 35 3 20 20 9 49 -19 49 -11 0 -29 -11 -38 -25z"/> <path d="M2200 613 c0 -9 15 -13 45 -13 29 0 45 4 45 13 0 8 -16 12 -45 12 -30 0 -45 -4 -45 -12z"/> <path d="M2300 613 c0 -9 30 -12 105 -12 61 0 105 4 105 9 0 11 1 11 -123 13 -62 2 -87 -1 -87 -10z"/> <path d="M2526 623 c-15 -15 -3 -24 27 -22 18 2 37 1 42 -2 6 -3 24 -2 40 1 l30 7 -40 7 c-78 14 -93 15 -99 9z"/> <path d="M1953 585 c4 -12 59 -13 64 0 2 6 -12 10 -32 10 -19 0 -34 -4 -32 -10z"/> <path d="M2200 559 c0 -5 32 -8 70 -7 39 1 70 5 70 10 0 5 -31 8 -70 7 -38 -1 -70 -6 -70 -10z"/> <path d="M1927 553 c18 -2 50 -2 70 0 21 2 7 4 -32 4 -38 0 -55 -2 -38 -4z"/> <path d="M2275 520 c-4 -6 8 -10 30 -10 22 0 34 4 30 10 -3 6 -17 10 -30 10 -13 0 -27 -4 -30 -10z"/> <path d="M2370 518 c0 -5 5 -6 10 -3 6 3 10 2 10 -2 0 -5 16 -7 35 -5 51 6 43 22 -10 20 -25 0 -45 -5 -45 -10z"/> <path d="M2080 495 c0 -23 4 -25 45 -25 41 0 45 2 45 25 0 23 -4 25 -45 25 -41 0 -45 -2 -45 -25z"/> <path d="M2092 429 c-1 -9 -11 -19 -22 -22 -24 -6 -27 -42 -3 -51 25 -10 35 7 30 50 -2 22 -4 32 -5 23z"/> <path d="M2200 424 c0 -15 4 -16 58 -16 31 -1 51 7 41 16 -2 2 -25 6 -51 8 -37 4 -48 2 -48 -8z"/> <path d="M2363 433 c-70 -5 -68 -23 2 -23 42 0 55 3 55 15 0 8 -1 14 -2 13 -2 -1 -27 -3 -55 -5z"/> <path d="M2430 426 c0 -7 16 -13 35 -14 19 -2 35 2 35 8 0 5 -8 10 -17 11 -10 0 -26 2 -35 4 -10 2 -18 -2 -18 -9z"/> <path d="M1820 393 c0 -8 13 -13 35 -13 19 0 35 4 35 9 0 5 -16 11 -35 13 -24 3 -35 0 -35 -9z"/> <path d="M2108 373 c-6 -42 -4 -48 11 -38 13 8 15 75 2 75 -5 0 -11 -17 -13 -37z"/> <path d="M1940 390 c0 -11 68 -17 83 -8 15 10 12 10 -40 13 -24 1 -43 -1 -43 -5z"/> <path d="M2223 382 c-13 -2 -23 -7 -23 -11 0 -5 41 -9 90 -9 51 -1 90 3 90 8 0 6 -12 10 -27 11 -16 1 -46 2 -68 3 -22 1 -50 0 -62 -2z"/> <path d="M2413 382 c-39 -6 -25 -22 17 -20 41 1 54 13 23 20 -10 2 -28 2 -40 0z"/> <path d="M2480 374 c0 -14 96 -18 105 -4 3 5 3 10 -2 11 -82 5 -103 3 -103 -7z"/> <path d="M1870 353 c0 -9 9 -12 25 -9 13 3 27 0 31 -5 4 -6 10 -7 17 0 7 5 16 9 20 9 12 0 22 12 11 13 -94 5 -104 4 -104 -8z"/> <path d="M1838 332 c-16 -2 -28 -8 -28 -13 0 -5 51 -9 116 -9 73 0 113 4 109 10 -3 5 -38 9 -78 8 -40 -2 -76 0 -82 3 -5 2 -22 3 -37 1z"/> <path d="M2238 332 c-21 -2 -38 -7 -38 -12 0 -10 129 -10 135 1 6 9 -48 15 -97 11z"/> <path d="M232 313 c3 -18 48 -26 48 -9 0 6 5 4 10 -4 8 -12 10 -12 10 5 0 16 -7 20 -36 22 -27 1 -35 -2 -32 -14z"/> <path d="M382 311 c3 -17 52 -22 80 -9 14 7 16 5 11 -9 -6 -15 -4 -16 9 -5 9 7 21 11 28 10 7 -2 15 3 17 10 3 6 -1 12 -9 12 -7 1 -41 2 -76 4 -52 2 -62 0 -60 -13z"/> <path d="M542 314 c2 -10 10 -18 17 -16 7 1 19 -2 26 -8 9 -8 15 -8 20 0 3 6 11 8 16 5 5 -4 9 1 9 9 0 9 -6 16 -14 16 -7 0 -28 3 -46 6 -28 6 -31 4 -28 -12z"/> <path d="M650 311 c0 -10 8 -17 20 -17 11 0 20 6 20 12 0 6 -9 14 -20 17 -14 4 -20 0 -20 -12z"/> <path d="M700 316 c0 -9 6 -16 13 -17 6 0 20 -2 30 -4 9 -2 17 3 17 11 0 8 -6 14 -14 14 -8 0 -21 3 -30 6 -11 4 -16 1 -16 -10z"/> <path d="M780 305 c0 -16 2 -17 10 -5 5 8 10 10 10 4 0 -16 99 -12 105 5 4 10 -1 12 -20 9 -14 -3 -25 -2 -25 1 0 3 -18 6 -40 6 -34 1 -40 -2 -40 -20z"/> <path d="M920 310 c0 -11 4 -20 10 -20 5 0 7 8 4 18 -5 14 -4 15 5 2 12 -17 25 -19 63 -9 22 6 26 4 20 -9 -5 -15 -4 -16 13 -2 10 8 21 14 24 12 3 -2 7 2 9 8 3 9 -12 11 -52 8 -31 -1 -56 0 -56 5 0 4 -9 7 -20 7 -13 0 -20 -7 -20 -20z"/> <path d="M1081 313 c-1 -16 4 -21 18 -20 11 0 17 6 14 12 -4 5 3 2 14 -8 14 -12 23 -15 28 -7 3 5 10 8 15 5 5 -3 12 0 16 6 3 6 2 14 -5 18 -16 10 -81 0 -82 -13 0 -6 -4 -2 -9 9 -8 19 -9 19 -9 -2z"/> <path d="M1210 310 c0 -23 19 -26 39 -7 10 8 12 8 7 0 -8 -14 10 -28 19 -14 3 5 14 8 25 6 11 -2 20 1 20 6 0 6 7 6 18 0 13 -7 23 -6 30 1 9 9 12 9 12 -1 0 -10 3 -11 14 -2 11 9 16 9 21 1 5 -8 10 -9 18 -1 6 6 8 13 5 16 -10 11 -193 6 -196 -4 -2 -6 -8 -11 -13 -11 -4 0 -6 7 -3 15 4 8 1 15 -5 15 -6 0 -11 -9 -11 -20z"/> <path d="M1450 314 c0 -8 4 -13 9 -9 5 3 12 2 15 -3 2 -4 22 -9 43 -9 21 -1 32 0 26 3 -7 3 -13 12 -13 20 0 11 -5 12 -18 5 -11 -6 -24 -6 -33 0 -21 13 -29 11 -29 -7z"/> <path d="M1566 312 c4 -13 15 -17 50 -17 27 0 44 5 44 12 0 19 -15 23 -49 13 -19 -5 -29 -5 -26 1 4 5 0 9 -8 9 -10 0 -13 -7 -11 -18z"/> <path d="M313 306 c5 -14 46 -15 49 -1 2 6 -10 10 -25 11 -16 1 -26 -4 -24 -10z"/> <path d="M2062 308 c-18 -18 -14 -56 7 -68 11 -5 38 -10 60 -10 37 0 41 2 41 25 0 23 -4 25 -45 25 -28 0 -45 -4 -45 -12 0 -9 -3 -9 -11 -1 -16 16 -2 33 27 33 13 0 24 5 24 10 0 14 -43 13 -58 -2z"/> <path d="M1848 293 c-29 -7 -21 -22 10 -18 15 2 31 4 35 4 5 1 5 6 2 11 -6 10 -17 11 -47 3z"/> <path d="M1910 288 c0 -16 96 -23 105 -8 4 6 -11 10 -34 10 -21 0 -46 3 -55 6 -10 4 -16 1 -16 -8z"/> <path d="M2260 279 c0 -5 16 -9 35 -9 19 0 35 4 35 9 0 5 -16 9 -35 9 -19 0 -35 -4 -35 -9z"/> <path d="M2360 282 c0 -5 20 -10 45 -10 25 -1 45 2 45 8 0 5 -20 10 -45 10 -25 0 -45 -4 -45 -8z"/> <path d="M2460 281 c0 -11 21 -19 38 -14 21 8 13 23 -13 23 -14 0 -25 -4 -25 -9z"/> <path d="M338 248 c5 -21 6 -21 13 -2 7 16 8 17 8 2 1 -21 17 -24 24 -5 4 10 6 10 6 0 1 -18 21 -16 21 1 0 7 -14 16 -31 20 -46 9 -48 8 -41 -16z"/> <path d="M230 245 c0 -8 17 -13 45 -13 33 -1 45 3 45 13 0 11 -11 15 -45 13 -28 -1 -45 -6 -45 -13z"/> <path d="M1930 190 c0 -16 7 -20 35 -20 28 0 35 4 35 20 0 16 -7 20 -35 20 -28 0 -35 -4 -35 -20z"/> <path d="M2072 194 c-15 -11 -22 -25 -22 -50 0 -32 2 -34 30 -32 34 3 40 17 10 25 -32 9 -25 40 11 47 36 7 59 -7 59 -36 0 -15 -5 -18 -21 -13 -15 5 -20 3 -17 -6 3 -8 17 -15 31 -16 24 -2 27 2 27 27 0 16 -5 32 -10 35 -6 4 -8 10 -5 14 2 5 -9 11 -26 15 -42 8 -41 8 -67 -10z"/> <path d="M2200 186 c0 -13 11 -16 50 -16 28 0 50 5 50 10 0 6 -15 10 -34 10 -19 0 -41 3 -50 6 -11 4 -16 1 -16 -10z"/> <path d="M2310 184 c0 -12 51 -22 83 -16 35 7 11 24 -36 26 -30 1 -47 -2 -47 -10z"/> <path d="M2420 186 c0 -15 20 -22 45 -16 6 1 39 2 73 1 48 -1 63 1 59 11 -2 7 -15 12 -28 10 -41 -4 -113 -2 -131 4 -12 3 -18 0 -18 -10z"/> <path d="M241 176 c-15 -17 -7 -66 10 -66 6 0 6 6 0 19 -14 26 9 57 35 47 18 -8 18 -9 -3 -17 -27 -10 -29 -22 -8 -39 25 -21 47 -4 43 32 -3 29 -7 33 -34 36 -19 2 -36 -3 -43 -12z"/> <path d="M676 171 c-11 -13 -15 -27 -11 -40 6 -19 14 -21 105 -21 89 0 100 2 110 20 8 15 6 24 -10 40 -29 29 -168 30 -194 1z m162 -21 c7 0 10 -4 7 -10 -10 -16 -145 -13 -145 3 0 9 17 12 63 10 34 -1 68 -2 75 -3z"/> <path d="M356 163 c-4 -10 10 -13 59 -13 48 0 65 4 65 13 0 11 -11 12 -45 7 -25 -4 -45 -4 -45 0 0 12 -29 7 -34 -7z"/> <path d="M490 165 c0 -6 26 -11 60 -12 40 -1 60 3 60 10 0 8 -21 12 -60 12 -35 0 -60 -4 -60 -10z"/> <path d="M1127 156 c-25 -19 -21 -36 8 -36 25 0 32 14 17 37 -5 8 -11 8 -25 -1z"/> <path d="M1306 161 c-7 -11 3 -41 13 -41 12 0 31 23 31 37 0 15 -36 18 -44 4z"/> <path d="M1180 143 c0 -9 9 -13 25 -11 33 4 33 22 0 24 -15 0 -25 -4 -25 -13z"/> <path d="M1452 148 c-17 -17 -15 -26 6 -24 19 1 33 16 26 28 -7 11 -18 10 -32 -4z"/> <path d="M1510 146 c0 -12 10 -16 40 -16 22 0 40 5 40 10 0 6 -11 10 -24 10 -13 0 -31 3 -40 6 -11 4 -16 1 -16 -10z"/> <path d="M2200 138 c0 -10 14 -14 50 -15 28 0 50 3 50 8 0 5 -15 9 -34 9 -19 0 -41 3 -50 6 -10 4 -16 1 -16 -8z"/> <path d="M2364 139 c-3 -5 -2 -9 3 -9 4 -1 34 -2 66 -4 47 -2 57 0 56 13 0 11 -2 12 -6 3 -2 -6 -9 -10 -13 -7 -16 10 -100 13 -106 4z"/> <path d="M510 119 c0 -5 17 -9 37 -9 20 0 33 3 29 7 -11 11 -66 12 -66 2z"/> <path d="M1912 91 c-7 -4 -10 -15 -6 -27 7 -19 6 -19 -8 0 -17 21 -32 8 -22 -18 9 -24 29 -19 49 10 17 27 9 49 -13 35z"/> <path d="M2103 86 c-29 -14 -32 -56 -4 -56 25 0 55 45 38 57 -7 6 -21 5 -34 -1z"/> <path d="M120 75 c0 -8 7 -15 15 -15 8 0 15 5 15 11 0 5 5 7 10 4 6 -3 10 -1 10 4 0 6 -11 11 -25 11 -16 0 -25 -6 -25 -15z"/> <path d="M1985 77 c-23 -17 -14 -47 15 -47 26 0 37 27 18 46 -12 12 -17 12 -33 1z"/> <path d="M2390 73 c0 -7 11 -13 25 -13 14 0 25 6 25 13 0 6 -11 12 -25 12 -14 0 -25 -6 -25 -12z"/> <path d="M2703 77 c-4 -6 0 -8 10 -4 10 3 17 3 17 -1 0 -4 18 -6 40 -4 22 2 40 7 40 11 0 11 -100 9 -107 -2z"/> <path d="M63 73 c-16 -6 -17 -29 -3 -38 13 -8 43 22 35 35 -7 11 -13 11 -32 3z"/> <path d="M620 55 c0 -21 5 -25 29 -25 24 0 29 4 29 25 0 21 -5 25 -29 25 -24 0 -29 -4 -29 -25z"/> <path d="M741 70 c-16 -9 -6 -30 15 -30 15 0 20 25 6 34 -4 2 -14 1 -21 -4z"/> <path d="M1359 73 c0 -4 -2 -16 -4 -26 -3 -14 2 -18 23 -15 35 4 38 41 5 46 -13 2 -23 0 -24 -5z"/> <path d="M1478 73 c-10 -2 -18 -11 -18 -19 0 -8 4 -13 9 -9 5 3 12 1 16 -5 11 -18 25 -10 25 15 0 25 -1 26 -32 18z"/> <path d="M1564 66 c-8 -21 3 -36 29 -36 20 0 20 0 1 16 -18 15 -18 15 5 8 17 -4 22 -2 19 7 -7 20 -47 23 -54 5z"/> <path d="M1660 75 c0 -3 10 -10 23 -15 17 -7 18 -9 5 -9 -28 -1 -21 -21 7 -21 20 0 25 5 25 25 0 21 -5 25 -30 25 -16 0 -30 -2 -30 -5z"/> <path d="M1770 55 c0 -20 5 -25 25 -25 20 0 25 5 25 25 0 20 -5 25 -25 25 -20 0 -25 -5 -25 -25z"/> <path d="M2190 60 c0 -13 7 -20 20 -20 13 0 20 7 20 20 0 13 -7 20 -20 20 -13 0 -20 -7 -20 -20z"/> <path d="M2900 72 c0 -24 14 -42 32 -42 29 0 20 44 -9 48 -13 2 -23 -1 -23 -6z"/> <path d="M800 54 c0 -6 20 -11 45 -11 28 -1 45 3 43 9 -5 14 -88 16 -88 2z"/> <path d="M1100 61 c0 -5 7 -14 15 -21 14 -12 20 -7 16 14 -1 5 5 4 13 -4 9 -7 16 -9 16 -4 0 5 4 3 9 -5 10 -15 41 -8 41 9 0 7 -12 9 -30 6 -16 -2 -30 0 -30 5 0 5 -11 9 -25 9 -14 0 -25 -4 -25 -9z"/> <path d="M1250 50 c0 -15 7 -20 25 -20 14 0 25 5 25 10 0 6 -7 10 -15 10 -8 0 -15 5 -15 10 0 6 -4 10 -10 10 -5 0 -10 -9 -10 -20z"/> <path d="M2680 40 c0 -5 29 -9 65 -9 36 0 63 4 60 9 -7 11 -125 11 -125 0z"/> </g> </svg> 