<?xml version="1.0" encoding="UTF-8"?>
<svg version="1.1" xmlns="http://www.w3.org/2000/svg" width="24" height="24">
<rect width="24" height="24" fill="#ffffff"/>
<path d="M0 0 C7.92 0 15.84 0 24 0 C24 7.92 24 15.84 24 24 C16.08 24 8.16 24 0 24 C0 16.08 0 8.16 0 0 Z " fill="#26bd65" transform="translate(0,0)"/>
<path d="M0 0 C0.33 0 0.66 0 1 0 C1 4.29 1 8.58 1 13 C-6.92 13 -14.84 13 -23 13 C-23 10.03 -23 7.06 -23 4 C-22.34 4 -21.68 4 -21 4 C-21 5.98 -21 7.96 -21 10 C-20.47043701 9.75765625 -19.94087402 9.5153125 -19.39526367 9.265625 C-16.99528308 8.171257 -14.59148093 7.0855505 -12.1875 6 C-11.35412109 5.6184375 -10.52074219 5.236875 -9.66210938 4.84375 C-8.85966797 4.4828125 -8.05722656 4.121875 -7.23046875 3.75 C-6.12288208 3.24726563 -6.12288208 3.24726563 -4.99291992 2.734375 C-3 2 -3 2 0 2 C0 1.34 0 0.68 0 0 Z " fill="#26bd65" transform="translate(23,11)"/>
<path d="M0 0 C2.78162695 0.63046603 5.28492526 1.47315233 7.890625 2.62890625 C8.59960938 2.94150391 9.30859375 3.25410156 10.0390625 3.57617188 C11.13347656 4.0644043 11.13347656 4.0644043 12.25 4.5625 C12.99507812 4.89185547 13.74015625 5.22121094 14.5078125 5.56054688 C16.33980368 6.37085066 18.17007345 7.18504434 20 8 C20 8.66 20 9.32 20 10 C17.418342 11.14973839 14.83481693 12.29490359 12.25 13.4375 C11.52039062 13.76298828 10.79078125 14.08847656 10.0390625 14.42382812 C9.33007812 14.73642578 8.62109375 15.04902344 7.890625 15.37109375 C7.24125977 15.65911865 6.59189453 15.94714355 5.92285156 16.24389648 C3.96927529 17.01208157 2.04528795 17.53642793 0 18 C0 15.36 0 12.72 0 10 C3.3 10 6.6 10 10 10 C10 9.34 10 8.68 10 8 C6.7 8 3.4 8 0 8 C0 5.36 0 2.72 0 0 Z " fill="#0E0E0E" transform="translate(2,3)"/>
<path d="M0 0 C4.62 0 9.24 0 14 0 C13 3 13 3 10.8203125 4.38671875 C9.93085938 4.81597656 9.04140625 5.24523437 8.125 5.6875 C7.24070312 6.12449219 6.35640625 6.56148437 5.4453125 7.01171875 C3 8 3 8 0 8 C0 5.36 0 2.72 0 0 Z " fill="#0E0E0E" transform="translate(2,13)"/>
<path d="M0 0 C0 0.66 0 1.32 0 2 C-3.465 3.485 -3.465 3.485 -7 5 C-7 4.34 -7 3.68 -7 3 C-7.99 2.67 -8.98 2.34 -10 2 C-10 1.34 -10 0.68 -10 0 C-6.42355152 -1.2380014 -3.66305234 -0.74926071 0 0 Z " fill="#232323" transform="translate(22,11)"/>
<path d="M0 0 C3.96 0.33 7.92 0.66 12 1 C12 1.66 12 2.32 12 3 C8.7 3 5.4 3 2 3 C2 3.66 2 4.32 2 5 C1.34 5 0.68 5 0 5 C0 3.35 0 1.7 0 0 Z " fill="#26bd65" transform="translate(0,10)"/>
</svg>
